# xmcd
#
# Track frame offsets:
#	150
#	10296
#	22943
#	33228
#	43882
#	55628
#	66486
#	78781
#	89163
#	100908
#	112754
#	123023
#	138947
#	149309
#	165162
#	176311
#	188273
#	203295
#	217391
#	226154
#
# Disc length: 3196
#
# Revision: 2
# Processed by: cddbd v1.5.1PL0 Copyright (c) Steve Scherf et al.
# Submitted via: FreeRIP 2.94 
# Normalized: r1:TDELIM( - )
#
DISCID=f60c7a14
DTITLE=Various Artist - Country Legends 4
DYEAR=1997
DGENRE=Country
TTITLE0=Don Williams - Take my hand for a while
TTITLE1=George Jones - Don`t be angry
TTITLE2=Carl Perkins - Daddy sang bass
TTITLE3=Patsy Cline - Honky tonk merry go round
TTITLE4=Brenda Lee - Silver threads and golden needles
TTITLE5=Charly Pride - Oklahoma morning
TTITLE6=Johnny Caash - Folsom prison blues
TTITLE7=Loretta Lynn - Out of my head and back in my bed
TTITLE8=Johnny Dollar - Big wheels sing for me
TTITLE9=Jim Reeves - Mexican Joe
TTITLE10=Willie Nelson - On the road again
TTITLE11=Brenda Lee - You`re the one that i want
TTITLE12=Billie Loe Spears - It makes no difference now
TTITLE13=Charly Pride - Let me live in the light of his love
TTITLE14=George Jones - Where we never crow old
TTITLE15=Patsy Cline - Today,tomorrow and forever
TTITLE16=Kenny Rogers - Head the call
TTITLE17=Willie Nelson - Good hearted women
TTITLE18=Waylon Jennings - Love`s gonna live here
TTITLE19=Brenda Lee - You don`t have to say you love me
EXTD=20 Great Classic Country Hits\nLicensed from Sound and Music Corporation\n1997 MasterMusik\n1997 MasterToneMultimedia
EXTT0=
EXTT1=
EXTT2=
EXTT3=
EXTT4=
EXTT5=
EXTT6=
EXTT7=
EXTT8=
EXTT9=
EXTT10=
EXTT11=
EXTT12=
EXTT13=
EXTT14=
EXTT15=
EXTT16=
EXTT17=
EXTT18=
EXTT19=
PLAYORDER=
